<svg xmlns="http://www.w3.org/2000/svg" class="marks" role="img" aria-label="ThorVG GitHub stars history, growing from 0 in 2020 to about 1,400 in 2026" width="539" height="310" viewBox="0 0 539 310" style="background-color: transparent;">
<title>ThorVG GitHub Stars</title>
<g fill="none" stroke-miterlimit="10" transform="translate(76,30)"><g class="mark-group role-frame root" role="graphics-object" aria-roledescription="group mark container"><g transform="translate(0,0)">
<path class="background" aria-hidden="true" d="M0.5,0.5h443v242h-443Z" fill="transparent" stroke="transparent"></path><g>
<g class="mark-group role-axis" role="graphics-symbol" aria-roledescription="axis" aria-label="X-axis for a time scale with values from 2021 to 2026"><g transform="translate(0.5,242.5)"><g>
<g class="mark-rule role-axis-tick" pointer-events="none"><line transform="translate(29,0)" x2="0" y2="5" stroke="#000" stroke-width="1" opacity="1"></line><line transform="translate(111,0)" x2="0" y2="5" stroke="#000" stroke-width="1" opacity="1"></line><line transform="translate(192,0)" x2="0" y2="5" stroke="#000" stroke-width="1" opacity="1"></line><line transform="translate(274,0)" x2="0" y2="5" stroke="#000" stroke-width="1" opacity="1"></line><line transform="translate(356,0)" x2="0" y2="5" stroke="#000" stroke-width="1" opacity="1"></line><line transform="translate(437,0)" x2="0" y2="5" stroke="#000" stroke-width="1" opacity="1"></line></g>
<g class="mark-text role-axis-label" pointer-events="none"><text text-anchor="middle" transform="translate(28.989,24)" font-family="Inter, sans-serif" font-size="11px" font-weight="normal" fill="#000" opacity="1">2021</text><text text-anchor="middle" transform="translate(110.648,24)" font-family="Inter, sans-serif" font-size="11px" font-weight="normal" fill="#000" opacity="1">2022</text><text text-anchor="middle" transform="translate(192.307,24)" font-family="Inter, sans-serif" font-size="11px" font-weight="normal" fill="#000" opacity="1">2023</text><text text-anchor="middle" transform="translate(273.966,24)" font-family="Inter, sans-serif" font-size="11px" font-weight="normal" fill="#000" opacity="1">2024</text><text text-anchor="middle" transform="translate(355.625,24)" font-family="Inter, sans-serif" font-size="11px" font-weight="normal" fill="#000" opacity="1">2025</text><text text-anchor="middle" transform="translate(437.284,24)" font-family="Inter, sans-serif" font-size="11px" font-weight="normal" fill="#000" opacity="1">2026</text></g>
<g class="mark-rule role-axis-domain" pointer-events="none"><line transform="translate(0,0)" x2="443" y2="0" stroke="#000" stroke-width="1" opacity="1"></line></g>
</g></g></g>
<g class="mark-group role-axis" role="graphics-symbol" aria-roledescription="axis" aria-label="Y-axis titled 'GitHub Stars' for a linear scale with values from 0 to 1400"><g transform="translate(0.5,0.5)"><g>
<g class="mark-rule role-axis-tick" pointer-events="none"><line transform="translate(0,242)" x2="-5" y2="0" stroke="#000" stroke-width="1" opacity="1"></line><line transform="translate(0,207)" x2="-5" y2="0" stroke="#000" stroke-width="1" opacity="1"></line><line transform="translate(0,173)" x2="-5" y2="0" stroke="#000" stroke-width="1" opacity="1"></line><line transform="translate(0,138)" x2="-5" y2="0" stroke="#000" stroke-width="1" opacity="1"></line><line transform="translate(0,104)" x2="-5" y2="0" stroke="#000" stroke-width="1" opacity="1"></line><line transform="translate(0,69)" x2="-5" y2="0" stroke="#000" stroke-width="1" opacity="1"></line><line transform="translate(0,35)" x2="-5" y2="0" stroke="#000" stroke-width="1" opacity="1"></line><line transform="translate(0,0)" x2="-5" y2="0" stroke="#000" stroke-width="1" opacity="1"></line></g>
<g class="mark-text role-axis-label" pointer-events="none"><text text-anchor="end" transform="translate(-15,245.6)" font-family="Inter, sans-serif" font-size="11px" font-weight="normal" fill="#000" opacity="1">0</text><text text-anchor="end" transform="translate(-15,211.029)" font-family="Inter, sans-serif" font-size="11px" font-weight="normal" fill="#000" opacity="1">200</text><text text-anchor="end" transform="translate(-15,176.457)" font-family="Inter, sans-serif" font-size="11px" font-weight="normal" fill="#000" opacity="1">400</text><text text-anchor="end" transform="translate(-15,141.886)" font-family="Inter, sans-serif" font-size="11px" font-weight="normal" fill="#000" opacity="1">600</text><text text-anchor="end" transform="translate(-15,107.314)" font-family="Inter, sans-serif" font-size="11px" font-weight="normal" fill="#000" opacity="1">800</text><text text-anchor="end" transform="translate(-15,72.743)" font-family="Inter, sans-serif" font-size="11px" font-weight="normal" fill="#000" opacity="1">1000</text><text text-anchor="end" transform="translate(-15,38.171)" font-family="Inter, sans-serif" font-size="11px" font-weight="normal" fill="#000" opacity="1">1200</text><text text-anchor="end" transform="translate(-15,3.6)" font-family="Inter, sans-serif" font-size="11px" font-weight="normal" fill="#000" opacity="1">1400</text></g>
<g class="mark-rule role-axis-domain" pointer-events="none"><line transform="translate(0,242)" x2="0" y2="-242" stroke="#000" stroke-width="1" opacity="1"></line></g>
<g class="mark-text role-axis-title" pointer-events="none"><text text-anchor="middle" transform="translate(-53,121.0) rotate(-90) translate(0,-3)" font-family="Inter, sans-serif" font-size="11px" font-weight="normal" fill="#000" opacity="1">GitHub Stars</text></g>
</g></g></g>
<g class="mark-group role-scope layer_0_pathgroup" role="graphics-object" aria-roledescription="group mark container"><g transform="translate(0,0)"><path class="background" aria-hidden="true" d="M0,0h443v242h-443Z"></path><g>
<g class="mark-line role-mark layer_0_marks" role="graphics-object" aria-roledescription="line mark container"><path aria-label="series: thorvg/thorvg" role="graphics-symbol" aria-roledescription="line mark" d="M0,242L103.299,225.673L171.892,209.709L243.344,193.745L270.7,177.781L289.889,161.817L309.079,146.216L329.494,129.889L345.418,114.288L365.016,98.687L382.981,82.36L391.147,66.033L400.537,50.432L418.502,34.468L430.751,18.141L443,0" stroke="#d9482b" stroke-width="1.5" stroke-linejoin="miter" stroke-linecap="butt" stroke-dasharray="1,0"></path></g>
<g class="mark-symbol role-mark layer_1_marks" role="graphics-object" aria-roledescription="symbol mark container">
<path aria-label="date: 2020-08; GitHub Stars: 0" role="graphics-symbol" aria-roledescription="point" transform="translate(0,242)" d="M4.183,0A4.183,4.183,0,1,1,-4.183,0A4.183,4.183,0,1,1,4.183,0" fill="#d9482b" stroke-width="1.5" opacity="1"></path>
<path aria-label="date: 2021-11; GitHub Stars: 90" role="graphics-symbol" aria-roledescription="point" transform="translate(103.299,225.673)" d="M4.183,0A4.183,4.183,0,1,1,-4.183,0A4.183,4.183,0,1,1,4.183,0" fill="#d9482b" stroke-width="1.5" opacity="1"></path>
<path aria-label="date: 2022-10; GitHub Stars: 190" role="graphics-symbol" aria-roledescription="point" transform="translate(171.892,209.709)" d="M4.183,0A4.183,4.183,0,1,1,-4.183,0A4.183,4.183,0,1,1,4.183,0" fill="#d9482b" stroke-width="1.5" opacity="1"></path>
<path aria-label="date: 2023-08; GitHub Stars: 280" role="graphics-symbol" aria-roledescription="point" transform="translate(243.344,193.745)" d="M4.183,0A4.183,4.183,0,1,1,-4.183,0A4.183,4.183,0,1,1,4.183,0" fill="#d9482b" stroke-width="1.5" opacity="1"></path>
<path aria-label="date: 2023-12; GitHub Stars: 370" role="graphics-symbol" aria-roledescription="point" transform="translate(270.7,177.781)" d="M4.183,0A4.183,4.183,0,1,1,-4.183,0A4.183,4.183,0,1,1,4.183,0" fill="#d9482b" stroke-width="1.5" opacity="1"></path>
<path aria-label="date: 2024-03; GitHub Stars: 460" role="graphics-symbol" aria-roledescription="point" transform="translate(289.889,161.817)" d="M4.183,0A4.183,4.183,0,1,1,-4.183,0A4.183,4.183,0,1,1,4.183,0" fill="#d9482b" stroke-width="1.5" opacity="1"></path>
<path aria-label="date: 2024-06; GitHub Stars: 550" role="graphics-symbol" aria-roledescription="point" transform="translate(309.079,146.216)" d="M4.183,0A4.183,4.183,0,1,1,-4.183,0A4.183,4.183,0,1,1,4.183,0" fill="#d9482b" stroke-width="1.5" opacity="1"></path>
<path aria-label="date: 2024-09; GitHub Stars: 650" role="graphics-symbol" aria-roledescription="point" transform="translate(329.494,129.889)" d="M4.183,0A4.183,4.183,0,1,1,-4.183,0A4.183,4.183,0,1,1,4.183,0" fill="#d9482b" stroke-width="1.5" opacity="1"></path>
<path aria-label="date: 2024-11; GitHub Stars: 740" role="graphics-symbol" aria-roledescription="point" transform="translate(345.418,114.288)" d="M4.183,0A4.183,4.183,0,1,1,-4.183,0A4.183,4.183,0,1,1,4.183,0" fill="#d9482b" stroke-width="1.5" opacity="1"></path>
<path aria-label="date: 2025-02; GitHub Stars: 830" role="graphics-symbol" aria-roledescription="point" transform="translate(365.016,98.687)" d="M4.183,0A4.183,4.183,0,1,1,-4.183,0A4.183,4.183,0,1,1,4.183,0" fill="#d9482b" stroke-width="1.5" opacity="1"></path>
<path aria-label="date: 2025-05; GitHub Stars: 920" role="graphics-symbol" aria-roledescription="point" transform="translate(382.981,82.36)" d="M4.183,0A4.183,4.183,0,1,1,-4.183,0A4.183,4.183,0,1,1,4.183,0" fill="#d9482b" stroke-width="1.5" opacity="1"></path>
<path aria-label="date: 2025-06; GitHub Stars: 1020" role="graphics-symbol" aria-roledescription="point" transform="translate(391.147,66.033)" d="M4.183,0A4.183,4.183,0,1,1,-4.183,0A4.183,4.183,0,1,1,4.183,0" fill="#d9482b" stroke-width="1.5" opacity="1"></path>
<path aria-label="date: 2025-07; GitHub Stars: 1110" role="graphics-symbol" aria-roledescription="point" transform="translate(400.537,50.432)" d="M4.183,0A4.183,4.183,0,1,1,-4.183,0A4.183,4.183,0,1,1,4.183,0" fill="#d9482b" stroke-width="1.5" opacity="1"></path>
<path aria-label="date: 2025-10; GitHub Stars: 1200" role="graphics-symbol" aria-roledescription="point" transform="translate(418.502,34.468)" d="M4.183,0A4.183,4.183,0,1,1,-4.183,0A4.183,4.183,0,1,1,4.183,0" fill="#d9482b" stroke-width="1.5" opacity="1"></path>
<path aria-label="date: 2025-12; GitHub Stars: 1300" role="graphics-symbol" aria-roledescription="point" transform="translate(430.751,18.141)" d="M4.183,0A4.183,4.183,0,1,1,-4.183,0A4.183,4.183,0,1,1,4.183,0" fill="#d9482b" stroke-width="1.5" opacity="1"></path>
<path aria-label="date: 2026-01; GitHub Stars: 1400" role="graphics-symbol" aria-roledescription="point" transform="translate(443,0)" d="M4.183,0A4.183,4.183,0,1,1,-4.183,0A4.183,4.183,0,1,1,4.183,0" fill="#d9482b" stroke-width="1.5" opacity="1"></path>
</g></g><path class="foreground" aria-hidden="true" d="" display="none"></path></g></g>
<g class="mark-text role-mark layer_2_marks" role="graphics-object" aria-roledescription="text mark container"><text aria-label="endpoint_label: thorvg/thorvg" role="graphics-symbol" aria-roledescription="text mark" text-anchor="end" transform="translate(433,2)" font-family="Inter, sans-serif" font-size="11px" fill="#000">thorvg/thorvg</text></g>
</g><path class="foreground" aria-hidden="true" d="" display="none"></path></g></g></g></svg>
